# xmcd
#
# Track frame offsets:
# 150
# 9495
# 22654
# 28721
# 37658
# 48462
# 59071
# 69095
# 77475
# 87806
# 96409
# 104789
# 112612
# 121299
# 126725
# 134325
# 142482
# 149692
# 160190
# 167038
# 172827
# 181235
# 191231
# 199639
# 205790
# 214672
# 222411
# 231599
# 237778
# 250003
# 258411
# 267711
# 275673
# 284696
#
# Disc length: 3910 seconds
#
# Revision: 0
# Processed by: cddbd v1.5.2PL0 Copyright (c) Steve Scherf et al.
# Submitted via: Audion 3.0.2 (http://www.panic.com/audion/)
#
DISCID=050f4422
DTITLE=RED - RED APPHILIATES TRACKS 
DYEAR=1900
DGENRE=
TTITLE0=T1
TTITLE1=T2
TTITLE2=T3
TTITLE3=T4
TTITLE4=T5
TTITLE5=T6
TTITLE6=T7
TTITLE7=T8
TTITLE8=T9
TTITLE9=T10
TTITLE10=T11
TTITLE11=T12
TTITLE12=T13
TTITLE13=T14
TTITLE14=T15
TTITLE15=T16
TTITLE16=T17
TTITLE17=T18
TTITLE18=T19
TTITLE19=T20
TTITLE20=T21
TTITLE21=T22
TTITLE22=T23
TTITLE23=T24
TTITLE24=T25
TTITLE25=T26
TTITLE26=T27
TTITLE27=T28
TTITLE28=T29
TTITLE29=T39
TTITLE30=T31
TTITLE31=T32
TTITLE32=T33
TTITLE33=T34
EXTD=
EXTT0=
EXTT1=
EXTT2=
EXTT3=
EXTT4=
EXTT5=
EXTT6=
EXTT7=
EXTT8=
EXTT9=
EXTT10=
EXTT11=
EXTT12=
EXTT13=
EXTT14=
EXTT15=
EXTT16=
EXTT17=
EXTT18=
EXTT19=
EXTT20=
EXTT21=
EXTT22=
EXTT23=
EXTT24=
EXTT25=
EXTT26=
EXTT27=
EXTT28=
EXTT29=
EXTT30=
EXTT31=
EXTT32=
EXTT33=
PLAYORDER=
